<?xml version="1.0" encoding="iso-8859-1"?>
<!-- Generator: Adobe Illustrator 17.1.0, SVG Export Plug-In . SVG Version: 6.00 Build 0)  -->
<!DOCTYPE svg PUBLIC "-//W3C//DTD SVG 1.1//EN" "http://www.w3.org/Graphics/SVG/1.1/DTD/svg11.dtd">
<svg xmlns="http://www.w3.org/2000/svg" xmlns:xlink="http://www.w3.org/1999/xlink" version="1.1" id="Capa_1" x="0px" y="0px" viewBox="0 0 434.242 434.242" style="enable-background:new 0 0 434.242 434.242;" xml:space="preserve" width="512px" height="512px">
<path d="M132.814,149.752c10.719,6.369,22.734,9.552,34.753,9.552c12.017,0,24.036-3.184,34.753-9.551  c25.499-15.148,39.327-45.114,37.94-82.215c-1.469-39.196-29.863-60.723-59.455-66.337c-0.292-0.076-3.66-0.553-7.092-0.941  c-2.156-0.244-8.522-0.363-11.172-0.147c-1.592,0.129-3.209,0.284-4.339,0.445c-30.938,4.417-61.796,26.079-63.326,66.982  C93.489,104.639,107.316,134.604,132.814,149.752z M186.837,23.419c17.9,6.352,32.542,20.974,33.437,44.868  c0.016,0.422,0.029,0.845,0.041,1.265c-16.494,4.626-33.963,0.078-46.534-12.065C180.154,47.754,184.589,36.228,186.837,23.419z   M115.102,64.74c2.904-29.578,27.738-43.854,52.094-44.968c-2.424,14.345-7.772,24.44-13.553,31.466  c-0.266,0.281-5.929,6.26-8.403,8.17c-8.79,6.784-19.546,10.299-30.416,10.087C114.834,69.095,114.988,65.899,115.102,64.74z   M157.459,75.242c1.092-0.843,2.156-1.717,3.196-2.622c15.888,14.945,37.221,21.385,58.148,17.767  c-3.482,19.022-12.73,33.874-26.699,42.172c-15.136,8.991-33.94,8.992-49.076,0c-14.183-8.426-23.498-23.611-26.854-43.055  C130.967,89.406,145.51,84.465,157.459,75.242z M378.823,267.429l-3.961,35.455c-0.614,5.488-5.552,9.443-11.05,8.827  c-5.488-0.613-9.44-5.56-8.827-11.049l0.79-7.063l-28.104,28.103c5.732,10.949,8.734,23.127,8.734,35.627  c0,42.41-34.503,76.914-76.913,76.914s-76.914-34.503-76.914-76.914s34.504-76.914,76.914-76.914c9.215,0,18.233,1.616,26.805,4.803  c5.176,1.925,7.813,7.682,5.888,12.858c-1.924,5.178-7.682,7.813-12.858,5.888c-6.333-2.355-13.007-3.549-19.834-3.549  c-31.383,0-56.914,25.531-56.914,56.914s25.531,56.914,56.914,56.914c31.382,0,56.913-25.531,56.913-56.914  c0-7.091-1.304-14.039-3.82-20.542l-13.697,13.697c-1.876,1.875-4.419,2.929-7.071,2.929l-31.281,0.001l-21.063,21.059  c-3.904,3.905-10.236,3.904-14.143-0.002c-3.904-3.906-3.903-10.237,0.002-14.142l23.992-23.988c1.875-1.875,4.418-2.929,7.07-2.929  l31.28-0.002l53.96-53.959l-7.067,0.786c-5.489,0.615-10.435-3.346-11.049-8.835c-0.613-5.488,3.339-10.45,8.828-11.064  c0,0,35.742-4.092,35.9-4.092c0.012,0,0.015,0,0.021,0c1.669,0,3.373,0.271,4.951,1.03  C377.047,259.117,379.294,263.207,378.823,267.429z M178.167,236.196c-4.314-3.448-5.018-9.741-1.57-14.055l15.025-18.808  c-7.849-2.211-16.056-3.291-24.049-3.304c-7.997,0.012-16.207,1.087-24.06,3.3l15.025,18.797c3.447,4.314,2.744,10.592-1.57,14.039  c-4.315,3.447-10.607,2.714-14.055-1.601l-18.432-23.128c-12.826,7.899-22.675,19.883-25.779,36.642L77.375,363.246h73.783  c5.522,0,10,4.477,10,10c0,5.522-4.478,10-10,10H65.358c-2.97,0-5.787-1.05-7.687-3.333c-1.9-2.283-2.687-5.022-2.147-7.943  l23.514-127.18c8.239-44.475,50.114-64.543,88.172-64.543c0.075,0,0.155,0,0.229,0c0.028,0,0.055,0,0.083,0h0.105  c0.06,0,0.112,0,0.17,0c0.048,0,0.095,0,0.142,0c38.059,0,79.931,20.066,88.171,64.539l0.215,1.059  c1.005,5.431-2.584,10.647-8.015,11.652c-5.423,1.002-10.646-2.583-11.651-8.015l-0.215-1.162  c-3.105-16.759-12.96-28.867-25.788-36.766l-18.433,23.072C188.776,238.94,182.486,239.644,178.167,236.196z" fill="#91DC5A"/>
<g>
</g>
<g>
</g>
<g>
</g>
<g>
</g>
<g>
</g>
<g>
</g>
<g>
</g>
<g>
</g>
<g>
</g>
<g>
</g>
<g>
</g>
<g>
</g>
<g>
</g>
<g>
</g>
<g>
</g>
</svg>
