<svg height="511pt" viewBox="1 -25 511.99996 511" width="511pt" xmlns="http://www.w3.org/2000/svg"><path d="m332.847656 288.671875c0 42.441406-34.40625 76.84375-76.847656 76.84375-42.4375 0-76.84375-34.402344-76.84375-76.84375s34.40625-76.847656 76.84375-76.847656c42.441406 0 76.847656 34.40625 76.847656 76.847656zm0 0" fill="#b3e4e8"/><path d="m256 461.574219c-3.199219 0-6.378906-.085938-9.539062-.261719l1.066406-19.210938c5.957031.316407 11.925781.300782 17.878906-.046874l1.152344 19.210937c-3.496094.207031-7.015625.308594-10.558594.308594zm-29.488281-2.507813c-6.605469-1.136718-13.136719-2.660156-19.566407-4.554687l5.4375-18.421875c5.714844 1.683594 11.523438 3.03125 17.394532 4.042968zm60.007812-.183594-3.382812-18.914062c5.867187-1.042969 11.664062-2.425781 17.367187-4.148438l5.550782 18.394532c-6.414063 1.933594-12.9375 3.492187-19.535157 4.667968zm-98.507812-11.199218c-6.164063-2.640625-12.171875-5.636719-17.992188-8.972656l9.605469-16.664063c5.171875 2.964844 10.511719 5.632813 15.996094 7.980469zm136.917969-.402344-7.683594-17.617188c5.460937-2.378906 10.78125-5.074218 15.925781-8.070312l9.664063 16.609375c-5.785157 3.371094-11.765626 6.402344-17.90625 9.078125zm-171.710938-19.578125c-5.386719-3.992187-10.539062-8.289063-15.433594-12.871094l13.148438-14.015625c4.347656 4.082032 8.925781 7.902344 13.71875 11.449219zm206.398438-.59375-11.527344-15.371094c4.769531-3.574219 9.332031-7.425781 13.660156-11.527343l13.21875 13.9375c-4.871094 4.613281-10 8.941406-15.371094 12.960937zm-235.683594-26.839844c-4.308594-5.121093-8.324219-10.488281-12.015625-16.070312l16-10.625c3.292969 4.972656 6.878906 9.742187 10.730469 14.292969zm264.78125-.757812-14.746094-12.316407c3.820312-4.578124 7.378906-9.375 10.652344-14.359374l16.0625 10.566406c-3.683594 5.59375-7.679688 10.96875-11.96875 16.109375zm-286.972656-32.660157c-3.03125-5.980468-5.71875-12.132812-8.039063-18.425781l18.03125-6.636719c2.066406 5.578126 4.449219 11.027344 7.144531 16.332032zm308.976562-.960937-17.183594-8.585937c2.664063-5.332032 5.019532-10.8125 7.050782-16.417969l18.066406 6.53125c-2.277344 6.324219-4.925782 12.507812-7.933594 18.519531zm-322.816406-36.703125c-1.5625-6.519531-2.746094-13.121094-3.546875-19.777344l19.078125-2.289062c.707031 5.917968 1.757812 11.789062 3.152344 17.582031zm336.496094-1.007812-18.703126-4.371094c1.347657-5.804688 2.359376-11.679688 3.035157-17.597656l19.085937 2.171874c-.765625 6.660157-1.914062 13.269532-3.449218 19.796876zm-341.300782-38.855469v-.652344c.003906-6.699219.390625-13.394531 1.152344-20.046875l19.085938 2.199219c-.683594 5.921875-1.023438 11.882812-1.027344 17.847656zm326.59375-.960938c-.007812-5.960937-.359375-11.917969-1.054687-17.835937l19.074219-2.25c.785156 6.65625 1.183593 13.347656 1.191406 20.046875zm-303.28125-35.128906-18.691406-4.40625c1.539062-6.535156 3.464844-12.972656 5.765625-19.28125l18.039063 6.570313c-2.035157 5.601562-3.738282 11.320312-5.113282 17.117187zm299.113282-.296875c-1.386719-5.792969-3.105469-11.503906-5.148438-17.097656l18.039062-6.609375c2.292969 6.285156 4.21875 12.699219 5.761719 19.210937zm-286.882813-33.214844-17.15625-8.648437c3.015625-5.992188 6.375-11.800781 10.066406-17.402344l16.042969 10.566406c-3.277344 4.984375-6.269531 10.15625-8.953125 15.484375zm274.664063-.269531c-2.6875-5.3125-5.683594-10.464844-8.972657-15.429687l16.023438-10.5625c3.703125 5.589843 7.074219 11.390624 10.09375 17.375zm-255.078126-29.527344-14.714843-12.355469c4.3125-5.132812 8.917969-10.007812 13.792969-14.609374l13.1875 13.964843c-4.335938 4.09375-8.433594 8.433594-12.265626 13zm235.339844-.222656c-3.847656-4.554687-7.949218-8.886719-12.285156-12.976563l13.160156-13.988281c4.886719 4.589844 9.496094 9.460938 13.8125 14.59375zm-209.40625-24.273437-11.527344-15.367188c5.375-4.011719 10.972657-7.707031 16.773438-11.066406l9.605469 16.625c-5.132813 2.984375-10.09375 6.257812-14.851563 9.808594zm183.46875-.171876c-4.789062-3.554687-9.773437-6.832031-14.9375-9.816406l9.605469-16.640625c5.808594 3.351563 11.414063 7.035157 16.792969 11.039063zm-152.613281-17.695312-7.628906-17.636719c6.15625-2.664062 12.460937-4.964843 18.886719-6.894531l5.511718 18.402344c-5.703125 1.71875-11.304687 3.761718-16.769531 6.128906zm121.703125-.125c-5.476562-2.355469-11.085938-4.390625-16.800781-6.089844l5.484375-18.414062c6.425781 1.917968 12.734375 4.203125 18.894531 6.847656zm-87.546875-10.125-3.34375-18.921875c6.605469-1.160156 13.269531-1.941406 19.960937-2.335937l1.117188 19.214843c-5.949219.332031-11.867188 1.015625-17.734375 2.042969zm53.371094 0c-5.875-1.019531-11.800781-1.699219-17.753907-2.035156l1.085938-19.210938c6.691406.375 13.351562 1.136719 19.953125 2.285156zm0 0" fill="#fbb540"/><path d="m236.789062 173.402344-19.210937-67.238282 38.421875-28.820312 38.425781 28.820312-19.214843 67.238282zm0 0" fill="#dc4d41"/><path d="m165.785156 362.941406-48.625 50.257813-44.175781-18.867188 5.753906-47.679687 67.835938-16.984375zm0 0" fill="#eea5a9"/><path d="m256 202.21875c-47.746094 0-86.449219 38.707031-86.449219 86.453125s38.703125 86.449219 86.449219 86.449219 86.453125-38.703125 86.453125-86.449219c-.058594-47.722656-38.730469-86.394531-86.453125-86.453125zm60.660156 57.632812h-15.511718c-1.578126-8.136718-3.828126-16.128906-6.726563-23.898437l-1.199219-3.207031c10.105469 6.765625 18.203125 16.128906 23.4375 27.105468zm6.582032 28.820313c-.027344 3.214844-.285157 6.425781-.769532 9.605469h-18.867187c.40625-6.398438.40625-12.816406 0-19.210938h18.867187c.484375 3.179688.742188 6.386719.769532 9.605469zm-54.253907 65.953125c-1.113281.21875-2.25.355469-3.382812.515625v-37.652344h15.871093c-1.277343 5.824219-2.945312 11.554688-4.996093 17.15625zm-33.515625-19.980469c-2.050781-5.597656-3.722656-11.332031-4.996094-17.15625h15.917969v37.652344c-1.144531-.160156-2.304687-.296875-3.429687-.527344zm-46.710937-45.972656c.027343-3.21875.28125-6.425781.769531-9.605469h18.816406c-.40625 6.394532-.40625 12.8125 0 19.210938h-18.816406c-.484375-3.179688-.742188-6.390625-.769531-9.605469zm38.804687-9.605469h18.828125v19.210938h-18.828125c-.46875-6.394532-.46875-12.816406 0-19.210938zm15.371094-56.339844c1.125-.230468 2.285156-.363281 3.429688-.527343v37.65625h-15.890626c1.273438-5.828125 2.941407-11.558594 4.996094-17.15625zm33.515625 19.972657c2.058594 5.597656 3.734375 11.328125 5.023437 17.152343h-15.871093v-37.652343c1.132812.164062 2.269531.296875 3.382812.519531zm-10.847656 55.578125v-19.210938h18.78125c.480469 6.394532.480469 12.816406 0 19.210938zm-46.941407-65.492188-1.183593 3.167969c-2.894531 7.769531-5.144531 15.761719-6.722657 23.902344h-15.417968c5.210937-10.953125 13.265625-20.300781 23.324218-27.070313zm-23.324218 84.703125h15.457031c1.578125 8.136719 3.828125 16.132813 6.722656 23.898438l1.183594 3.171875c-10.074219-6.765625-18.140625-16.117188-23.363281-27.070313zm97.980468 27.105469 1.199219-3.207031c2.867188-7.769531 5.082031-15.761719 6.628907-23.898438h15.503906c-5.21875 10.96875-13.296875 20.332031-23.378906 27.105469zm0 0" fill="#6fbbc6"/><path d="m365.429688 329.667969 67.835937 16.984375 5.753906 47.679687-44.179687 18.867188-48.621094-50.257813zm0 0" fill="#8dc79d"/><path d="m502.398438 408.742188c0 21.21875-17.203126 38.421874-38.425782 38.421874-21.21875 0-38.421875-17.203124-38.421875-38.421874s17.203125-38.421876 38.421875-38.421876c21.222656 0 38.425782 17.203126 38.425782 38.421876zm0 0" fill="#99d8aa"/><path d="m86.449219 408.742188c0 21.21875-17.199219 38.421874-38.421875 38.421874-21.21875 0-38.421875-17.203124-38.421875-38.421874s17.203125-38.421876 38.421875-38.421876c21.222656 0 38.421875 17.203126 38.421875 38.421876zm0 0" fill="#ffb1b5"/><path d="m294.425781 48.527344c0 21.222656-17.203125 38.425781-38.425781 38.425781-21.21875 0-38.421875-17.203125-38.421875-38.425781 0-21.21875 17.203125-38.421875 38.421875-38.421875 21.222656 0 38.425781 17.203125 38.425781 38.421875zm0 0" fill="#f55648"/><path d="m256 375.121094c-47.667969 0-86.449219-38.777344-86.449219-86.449219s38.78125-86.453125 86.449219-86.453125 86.457031 38.78125 86.457031 86.453125-38.789062 86.449219-86.457031 86.449219zm0-153.691406c-37.078125 0-67.238281 30.167968-67.238281 67.242187 0 37.070313 30.160156 67.238281 67.238281 67.238281s67.246094-30.167968 67.246094-67.238281c0-37.074219-30.167969-67.242187-67.246094-67.242187zm0 0"/><path d="m256 461.574219c-3.199219 0-6.378906-.085938-9.539062-.261719l1.066406-19.210938c5.957031.316407 11.925781.300782 17.878906-.046874l1.152344 19.210937c-3.496094.207031-7.015625.308594-10.558594.308594zm-29.488281-2.507813c-6.605469-1.136718-13.136719-2.660156-19.566407-4.554687l5.4375-18.421875c5.714844 1.683594 11.523438 3.03125 17.394532 4.042968zm60.007812-.183594-3.382812-18.914062c5.867187-1.042969 11.664062-2.425781 17.367187-4.148438l5.550782 18.394532c-6.414063 1.933594-12.9375 3.492187-19.535157 4.667968zm-98.507812-11.199218c-6.164063-2.640625-12.171875-5.636719-17.992188-8.972656l9.605469-16.664063c5.171875 2.964844 10.511719 5.632813 15.996094 7.980469zm136.917969-.402344-7.683594-17.617188c5.460937-2.378906 10.78125-5.074218 15.925781-8.070312l9.664063 16.609375c-5.785157 3.371094-11.765626 6.402344-17.90625 9.078125zm-171.710938-19.578125c-5.386719-3.992187-10.539062-8.289063-15.433594-12.871094l13.148438-14.015625c4.347656 4.082032 8.925781 7.902344 13.71875 11.449219zm206.398438-.59375-11.527344-15.371094c4.769531-3.574219 9.332031-7.425781 13.660156-11.527343l13.21875 13.9375c-4.871094 4.613281-10 8.941406-15.371094 12.960937zm-271.714844-97.921875c-1.5625-6.519531-2.746094-13.121094-3.546875-19.777344l19.078125-2.289062c.707031 5.917968 1.757812 11.789062 3.152344 17.582031zm336.496094-1.007812-18.703126-4.371094c1.347657-5.804688 2.359376-11.679688 3.035157-17.597656l19.085937 2.171874c-.765625 6.660157-1.914062 13.269532-3.449218 19.796876zm-341.300782-38.855469v-.652344c.003906-6.699219.390625-13.394531 1.152344-20.046875l19.085938 2.199219c-.683594 5.921875-1.023438 11.882812-1.027344 17.847656zm326.59375-.960938c-.007812-5.960937-.359375-11.917969-1.054687-17.835937l19.074219-2.25c.785156 6.65625 1.183593 13.347656 1.191406 20.046875zm-303.28125-35.128906-18.691406-4.40625c1.539062-6.535156 3.464844-12.972656 5.765625-19.28125l18.039063 6.570313c-2.035157 5.601562-3.738282 11.320312-5.113282 17.117187zm299.113282-.296875c-1.386719-5.792969-3.105469-11.503906-5.148438-17.097656l18.039062-6.609375c2.292969 6.285156 4.21875 12.699219 5.761719 19.210937zm-286.882813-33.214844-17.15625-8.648437c3.015625-5.992188 6.375-11.800781 10.066406-17.402344l16.042969 10.566406c-3.277344 4.984375-6.269531 10.15625-8.953125 15.484375zm274.664063-.269531c-2.6875-5.3125-5.683594-10.464844-8.972657-15.429687l16.023438-10.5625c3.703125 5.589843 7.074219 11.390624 10.09375 17.375zm-255.078126-29.527344-14.714843-12.355469c4.3125-5.132812 8.917969-10.007812 13.792969-14.609374l13.1875 13.964843c-4.335938 4.09375-8.433594 8.433594-12.265626 13zm235.339844-.222656c-3.847656-4.554687-7.949218-8.886719-12.285156-12.976563l13.160156-13.988281c4.886719 4.589844 9.496094 9.460938 13.8125 14.59375zm-209.40625-24.273437-11.527344-15.367188c5.375-4.011719 10.972657-7.707031 16.773438-11.066406l9.605469 16.625c-5.132813 2.984375-10.09375 6.257812-14.851563 9.808594zm183.46875-.171876c-4.789062-3.554687-9.773437-6.832031-14.9375-9.816406l9.605469-16.640625c5.808594 3.351563 11.414063 7.035157 16.792969 11.039063zm-152.613281-17.695312-7.628906-17.636719c6.15625-2.664062 12.460937-4.964843 18.886719-6.894531l5.511718 18.402344c-5.703125 1.71875-11.304687 3.761718-16.769531 6.128906zm121.703125-.125c-5.476562-2.355469-11.085938-4.390625-16.800781-6.089844l5.484375-18.414062c6.425781 1.917968 12.734375 4.203125 18.894531 6.847656zm0 0"/><path d="m256 96.558594c-26.480469 0-48.027344-21.550782-48.027344-48.03125 0-26.480469 21.546875-48.027344 48.027344-48.027344 26.484375 0 48.035156 21.546875 48.035156 48.027344 0 26.480468-21.550781 48.03125-48.035156 48.03125zm0-76.847656c-15.890625 0-28.816406 12.925781-28.816406 28.816406s12.925781 28.816406 28.816406 28.816406c15.894531 0 28.820312-12.925781 28.820312-28.816406s-12.925781-28.816406-28.820312-28.816406zm0 0"/><path d="m275.214844 183.007812h-38.425782c-4.289062 0-8.058593-2.84375-9.234374-6.964843l-19.210938-67.238281c-1.09375-3.832032.285156-7.9375 3.46875-10.324219l27.019531-20.265625c4.265625-3.1875 10.277344-2.3125 13.449219 1.917968 3.183594 4.242188 2.324219 10.265626-1.917969 13.445313l-21.738281 16.304687 15.410156 53.914063h23.933594l15.40625-53.914063-21.871094-16.402343c-4.242187-3.179688-5.101562-9.203125-1.917968-13.449219 3.1875-4.238281 9.199218-5.101562 13.445312-1.917969l27.15625 20.367188c3.1875 2.386719 4.566406 6.492187 3.480469 10.324219l-19.210938 67.238281c-1.183593 4.121093-4.953125 6.964843-9.242187 6.964843zm0 0"/><path d="m463.972656 456.769531c-26.480468 0-48.027344-21.546875-48.027344-48.027343 0-26.480469 21.546876-48.027344 48.027344-48.027344 26.480469 0 48.027344 21.546875 48.027344 48.027344 0 26.480468-21.546875 48.027343-48.027344 48.027343zm0-76.84375c-15.890625 0-28.816406 12.925781-28.816406 28.816407 0 15.890624 12.925781 28.816406 28.816406 28.816406s28.816406-12.925782 28.816406-28.816406c0-15.890626-12.925781-28.816407-28.816406-28.816407zm0 0"/><path d="m394.847656 422.804688c-2.554687 0-5.058594-1.015626-6.90625-2.929688l-48.628906-50.25c-2.980469-3.078125-3.554688-7.765625-1.414062-11.480469l19.210937-33.285156c2.136719-3.703125 6.453125-5.5625 10.65625-4.511719l67.839844 16.988282c3.855469.96875 6.726562 4.210937 7.203125 8.164062l4.109375 34.066406c.628906 5.273438-3.125 10.058594-8.386719 10.695313-5.308594.675781-10.054688-3.125-10.695312-8.386719l-3.308594-27.511719-54.398438-13.621093-11.96875 20.730468 38.992188 40.300782 25-10.6875c4.832031-2.082032 10.515625.171874 12.609375 5.066406 2.082031 4.878906-.1875 10.527344-5.066407 12.609375l-31.078124 13.273437c-1.21875.515625-2.496094.769532-3.769532.769532zm0 0"/><path d="m48.027344 456.769531c-26.480469 0-48.027344-21.546875-48.027344-48.027343 0-26.480469 21.546875-48.027344 48.027344-48.027344 26.480468 0 48.027344 21.546875 48.027344 48.027344 0 26.480468-21.546876 48.027343-48.027344 48.027343zm0-76.84375c-15.890625 0-28.816406 12.925781-28.816406 28.816407 0 15.890624 12.925781 28.816406 28.816406 28.816406s28.816406-12.925782 28.816406-28.816406c0-15.890626-12.925781-28.816407-28.816406-28.816407zm0 0"/><path d="m117.152344 422.804688c-1.265625 0-2.546875-.253907-3.765625-.769532l-27.652344-11.800781c-4.878906-2.082031-7.148437-7.730469-5.066406-12.609375 2.078125-4.878906 7.71875-7.15625 12.609375-5.0625l21.574218 9.210938 38.988282-40.300782-11.964844-20.730468-54.390625 13.621093-3.273437 27.148438c-.632813 5.269531-5.496094 8.984375-10.683594 8.394531-5.269532-.636719-9.027344-5.421875-8.386719-10.683594l4.058594-33.714844c.476562-3.957031 3.339843-7.203124 7.203125-8.171874l67.832031-16.988282c4.183594-1.058594 8.511719.796875 10.65625 4.515625l19.214844 33.28125c2.140625 3.714844 1.566406 8.402344-1.417969 11.480469l-48.625 50.25c-1.847656 1.914062-4.355469 2.929688-6.910156 2.929688zm0 0"/><path d="m246.394531 211.824219h19.210938v153.691406h-19.210938zm0 0"/><path d="m227.792969 368.894531-10.316407-27.503906c-12.746093-33.996094-12.746093-71.441406 0-105.4375l10.316407-27.5 17.992187 6.746094-10.316406 27.507812c-11.121094 29.640625-11.121094 62.285157 0 91.929688l10.316406 27.503906zm0 0"/><path d="m284.164062 368.882812-17.992187-6.734374 10.300781-27.503907c11.132813-29.652343 11.132813-62.296875 0-91.9375l-10.300781-27.515625 17.992187-6.734375 10.300782 27.503907c12.757812 33.988281 12.757812 71.433593 0 105.429687zm0 0"/><path d="m179.15625 259.851562h153.695312v19.214844h-153.695312zm0 0"/><path d="m179.15625 298.277344h153.695312v19.210937h-153.695312zm0 0"/></svg>