<svg height="480pt" viewBox="-31 0 479 480" width="480pt" xmlns="http://www.w3.org/2000/svg"><path d="m344.5 72h64l-64-64zm0 0" fill="#9bc9ff"/><path d="m8.5 248h400v176h-400zm0 0" fill="#9bc9ff"/><g fill="#57a4ff"><path d="m416.429688 72c.015624-2.109375-.800782-4.144531-2.273438-5.65625l-64-64c-1.503906-1.484375-3.542969-2.3007812-5.65625-2.2734375v-.0703125h-304c-22.082031.0273438-39.972656 17.917969-40 40v400c.027344 22.082031 17.917969 39.972656 40 40h336c22.082031-.027344 39.972656-17.917969 40-40zm-63.929688-44.6875 36.6875 36.6875h-36.6875zm-312-11.3125h296v56c0 4.417969 3.582031 8 8 8h56v160h-384v-200c0-13.253906 10.746094-24 24-24zm360 400h-384v-160h384zm-24 48h-336c-13.253906 0-24-10.746094-24-24v-8h384v8c0 13.253906-10.746094 24-24 24zm0 0"/><path d="m272.5 408c4.417969 0 8-3.582031 8-8v-56h40c13.253906 0 24-10.746094 24-24v-32c0-13.253906-10.746094-24-24-24h-48c-4.417969 0-8 3.582031-8 8v128c0 4.417969 3.582031 8 8 8zm8-128h40c4.417969 0 8 3.582031 8 8v32c0 4.417969-3.582031 8-8 8h-40zm0 0"/><path d="m80.5 408c4.417969 0 8-3.582031 8-8v-56h40c13.253906 0 24-10.746094 24-24v-32c0-13.253906-10.746094-24-24-24h-48c-4.417969 0-8 3.582031-8 8v128c0 4.417969 3.582031 8 8 8zm8-128h40c4.417969 0 8 3.582031 8 8v32c0 4.417969-3.582031 8-8 8h-40zm0 0"/><path d="m176.5 408c4.417969 0 8-3.582031 8-8v-56h48v56c0 4.417969 3.582031 8 8 8s8-3.582031 8-8v-128c0-4.417969-3.582031-8-8-8s-8 3.582031-8 8v56h-48v-56c0-4.417969-3.582031-8-8-8s-8 3.582031-8 8v128c0 4.417969 3.582031 8 8 8zm0 0"/></g></svg>